<?xml version="1.0" encoding="utf-8"?>
<!-- Generator: Adobe Illustrator 24.3.0, SVG Export Plug-In . SVG Version: 6.00 Build 0)  -->
<svg version="1.1" id="Layer_1" xmlns="http://www.w3.org/2000/svg" xmlns:xlink="http://www.w3.org/1999/xlink" x="0px" y="0px"
	 viewBox="0 0 96 96" style="enable-background:new 0 0 96 96;" xml:space="preserve">
<style type="text/css">
	.st0{fill:#191919;}
	.st1{fill:url(#SVGID_1_);}
	.st2{fill:url(#SVGID_2_);}
	.st3{fill:url(#SVGID_3_);}
	.st4{fill:url(#SVGID_4_);}
	.st5{fill:url(#SVGID_5_);}
	.st6{fill:url(#SVGID_6_);}
	.st7{fill:url(#SVGID_7_);}
	.st8{fill:url(#SVGID_8_);}
	.st9{fill:url(#SVGID_9_);}
	.st10{fill:url(#SVGID_10_);}
</style>
<rect class="st0" width="96" height="96"/>
<g>
	<linearGradient id="SVGID_1_" gradientUnits="userSpaceOnUse" x1="18.3568" y1="7.2432" x2="77.0003" y2="65.8867">
		<stop  offset="0" style="stop-color:#901DC2"/>
		<stop  offset="0.9947" style="stop-color:#34DDEA"/>
	</linearGradient>
	<path class="st1" d="M87.94,31.82c0,6.73-2.73,12.82-7.14,17.23c-3.4,3.4-7.8,5.8-12.72,6.72c-0.01,0-0.02,0-0.02,0
		c-0.24,0.03-0.46,0.07-0.68,0.12c0,0,0,0,0,0c-4.6,0.96-5.89,4.68-5.89,4.68l-10.16-4.39l-1.28-0.55c0.33-5.89,6.57-6.55,6.57-6.55
		h6.82c9.38,0,16.98-7.6,16.98-16.98v-0.57c0-9.98-8.09-18.07-18.07-18.07H37.07c-10.23,0-18.52,8.29-18.52,18.52v2.14
		c0,1.53,0.23,3.01,0.66,4.41c1.55,6.83,8.33,11.91,8.33,11.91l-1.02,4.28l-1.06,4.46l5.16-3.33l2.5-1.61
		c0.63,1.08,3.07,1.66,4.98,1.95c1.34,0.21,2.41,0.27,2.41,0.27c-1.44,1.34-7.38,0.87-7.38,0.87l-12.22,8.01
		c0,0,0.79-11.8,0.78-12.05c-0.01-0.17-2.01-2.47-3.36-4.01c-0.58-0.67-1.04-1.19-1.18-1.34c0,0-0.01-0.01-0.01-0.01
		c0,0-0.01-0.01-0.01-0.01c0,0-0.01-0.01-0.01-0.01l-0.01-0.01c0,0,0,0,0,0c-3.11-3.84-4.97-8.73-4.97-14.06v-1.57
		c0-14.31,11.6-25.9,25.9-25.9h24.44C76.54,6.37,87.94,17.76,87.94,31.82z"/>
	<linearGradient id="SVGID_2_" gradientUnits="userSpaceOnUse" x1="-2.6351" y1="28.2351" x2="56.0084" y2="86.8786">
		<stop  offset="0" style="stop-color:#901DC2"/>
		<stop  offset="0.9947" style="stop-color:#34DDEA"/>
	</linearGradient>
	<path class="st2" d="M18.32,49.28c-0.42-0.44-0.82-0.89-1.2-1.36C17.22,48.02,17.7,48.57,18.32,49.28z"/>
	<linearGradient id="SVGID_3_" gradientUnits="userSpaceOnUse" x1="18.7419" y1="6.8581" x2="77.3854" y2="65.5016">
		<stop  offset="0" style="stop-color:#901DC2"/>
		<stop  offset="0.9947" style="stop-color:#34DDEA"/>
	</linearGradient>
	<path class="st3" d="M68.06,55.78c-0.23,0.04-0.45,0.08-0.68,0.12C67.6,55.85,67.82,55.81,68.06,55.78z"/>
	<linearGradient id="SVGID_4_" gradientUnits="userSpaceOnUse" x1="23.4731" y1="2.1269" x2="82.1166" y2="60.7704">
		<stop  offset="0" style="stop-color:#901DC2"/>
		<stop  offset="0.9947" style="stop-color:#34DDEA"/>
	</linearGradient>
	<path class="st4" d="M67.09,26.5c0,0.55-0.22,1.05-0.58,1.41c-0.36,0.36-0.86,0.58-1.41,0.58H30.61c-1.1,0-1.99-0.89-1.99-1.99
		c0-0.55,0.22-1.05,0.58-1.41c0.36-0.36,0.86-0.58,1.41-0.58h34.48C66.19,24.51,67.09,25.4,67.09,26.5z"/>
	<linearGradient id="SVGID_5_" gradientUnits="userSpaceOnUse" x1="17.3835" y1="8.2165" x2="76.027" y2="66.86">
		<stop  offset="0" style="stop-color:#901DC2"/>
		<stop  offset="0.9947" style="stop-color:#34DDEA"/>
	</linearGradient>
	<path class="st5" d="M57.68,33.98c0,0.55-0.22,1.05-0.58,1.41s-0.86,0.58-1.41,0.58H30.61c-1.1,0-1.99-0.89-1.99-1.99
		c0-0.55,0.22-1.05,0.58-1.41c0.36-0.36,0.86-0.58,1.41-0.58h25.08C56.79,31.99,57.68,32.88,57.68,33.98z"/>
	<linearGradient id="SVGID_6_" gradientUnits="userSpaceOnUse" x1="9.5372" y1="16.0628" x2="68.1807" y2="74.7063">
		<stop  offset="0" style="stop-color:#901DC2"/>
		<stop  offset="0.9947" style="stop-color:#34DDEA"/>
	</linearGradient>
	<path class="st6" d="M61.74,64.37c-0.13,0.3-0.35,0.52-0.61,0.64c-0.26,0.12-0.55,0.13-0.81,0.02l-11.96-5.23
		c-0.53-0.23-0.74-0.9-0.48-1.49c0.13-0.3,0.35-0.52,0.61-0.64c0.26-0.12,0.55-0.13,0.81-0.02l11.96,5.23
		C61.78,63.11,62,63.77,61.74,64.37z"/>
	<linearGradient id="SVGID_7_" gradientUnits="userSpaceOnUse" x1="9.6087" y1="15.9913" x2="68.2522" y2="74.6348">
		<stop  offset="0" style="stop-color:#901DC2"/>
		<stop  offset="0.9947" style="stop-color:#34DDEA"/>
	</linearGradient>
	<path class="st7" d="M41.53,41.46c0,0.55-0.22,1.05-0.58,1.41c-0.36,0.36-0.86,0.58-1.41,0.58h-8.93c-1.1,0-1.99-0.89-1.99-1.99
		c0-0.55,0.22-1.05,0.58-1.41c0.36-0.36,0.86-0.58,1.41-0.58h8.93C40.64,39.46,41.53,40.35,41.53,41.46z"/>
	<linearGradient id="SVGID_8_" gradientUnits="userSpaceOnUse" x1="14.8566" y1="10.7434" x2="73.5001" y2="69.3869">
		<stop  offset="0" style="stop-color:#901DC2"/>
		<stop  offset="0.9947" style="stop-color:#34DDEA"/>
	</linearGradient>
	<path class="st8" d="M47.57,41.46c0,0.55-0.22,1.05-0.58,1.41c-0.36,0.36-0.86,0.58-1.41,0.58c-1.1,0-1.99-0.89-1.99-1.99
		c0-0.55,0.22-1.05,0.58-1.41c0.36-0.36,0.86-0.58,1.41-0.58s1.05,0.22,1.41,0.58C47.34,40.41,47.57,40.91,47.57,41.46z"/>
	<linearGradient id="SVGID_9_" gradientUnits="userSpaceOnUse" x1="49.0061" y1="57.4704" x2="49.0061" y2="57.4704">
		<stop  offset="0" style="stop-color:#901DC2"/>
		<stop  offset="0.9947" style="stop-color:#34DDEA"/>
	</linearGradient>
	<path class="st9" d="M49.01,57.47"/>
	<linearGradient id="SVGID_10_" gradientUnits="userSpaceOnUse" x1="-1.3629" y1="26.9629" x2="57.2806" y2="85.6064">
		<stop  offset="0" style="stop-color:#901DC2"/>
		<stop  offset="0.9947" style="stop-color:#34DDEA"/>
	</linearGradient>
	<path class="st10" d="M59.06,66.97l-0.31,1.7c-0.41,2.24-0.62,4.51-0.62,6.79v2.53c-2.32,1.86-4.58,3.78-6.78,5.78
		c-2.2,1.99-4.34,4.06-6.42,6.18l-1.49,1.53L50,76.3c1.54-0.1,2.77-1.39,2.77-2.96c0-1.64-1.33-2.97-2.97-2.97s-2.97,1.33-2.97,2.97
		c0,0.91,0.41,1.73,1.06,2.28l-6.17,14.85l0.02-1.21c0.07-6.07-0.23-12.14-0.9-18.17l2.36-2.44c0.91-0.95,1.74-1.97,2.48-3.06
		l2.26-3.36L59.06,66.97z"/>
</g>
</svg>
